<?xml version="1.0" encoding="UTF-8"?>
<svg id="Layer_2" data-name="Layer 2" xmlns="http://www.w3.org/2000/svg" viewBox="0 0 649.89 289.11">
  <defs>
    <style>
      .cls-1 {
        font-size: 224.74px;
      }

      .cls-1, .cls-2, .cls-3 {
        fill: #144791;
      }

      .cls-1, .cls-3 {
        font-family: Montserrat-Bold, Montserrat;
        font-weight: 700;
      }

      .cls-4 {
        fill: none;
        stroke: #e38e49;
        stroke-miterlimit: 10;
        stroke-width: 3px;
      }

      .cls-5 {
        letter-spacing: -.02em;
      }

      .cls-6 {
        letter-spacing: -.06em;
      }

      .cls-2, .cls-7 {
        fill-rule: evenodd;
      }

      .cls-8 {
        letter-spacing: -.02em;
      }

      .cls-9 {
        letter-spacing: 0em;
      }

      .cls-3 {
        font-size: 36.44px;
      }

      .cls-10 {
        letter-spacing: -.01em;
      }

      .cls-7 {
        fill: #e38e49;
      }

      .cls-11 {
        letter-spacing: 0em;
      }

      .cls-12 {
        letter-spacing: -.03em;
      }

      .cls-13 {
        letter-spacing: -.03em;
      }

      .cls-14 {
        letter-spacing: -.03em;
      }

      .cls-15 {
        letter-spacing: -.01em;
      }
    </style>
  </defs>
  <g id="Layer_1-2" data-name="Layer 1">
    <g>
      <g>
        <text class="cls-1" transform="translate(186.94 191.02)"><tspan class="cls-12" x="0" y="0">K</tspan><tspan class="cls-8" x="158.44" y="0">C</tspan><tspan class="cls-10" x="319.57" y="0">S</tspan></text>
        <g>
          <path class="cls-2" d="M89.2,24.27c3.98.13,10.43.51,20.03,3.85,9.6,3.35,22.37,9.67,32.6,18.58,10.24,8.91,17.94,20.41,22.62,32.29,4.68,11.88,6.32,24.14,5.5,36.77-.82,12.64-4.11,25.65-10.17,36.84-6.07,11.18-14.91,20.54-25.84,27.74-10.93,7.2-23.95,12.26-36.58,14.47-12.64,2.21-24.89,1.58-35.76-1.14s-20.35-7.52-26.35-10.95c-6.01-3.43-8.54-5.49-10.15-6.71-1.61-1.22-2.3-1.59,1.49.2,3.79,1.79,12.07,5.74,18.86,8.22,6.79,2.48,12.1,3.49,19.49,3.93,7.39.44,16.87.32,26.22-1.45,9.35-1.77,18.58-5.18,26.6-9.86,8.02-4.68,14.85-10.62,20.35-17.12,5.5-6.51,9.67-13.58,12.51-21.93,2.84-8.34,4.36-17.94,4.3-28.5-.06-10.55-1.71-22.05-5.81-32.79-4.11-10.74-10.68-20.72-16.74-27.42-6.07-6.7-11.63-10.11-16.74-13.02-5.12-2.91-9.79-5.31-15.29-7.2-5.5-1.9-11.82-3.29-14.22-4.04-2.4-.76-.88-.88,3.1-.76h0Z"/>
          <path class="cls-7" d="M61.33,28.63c-1.64.7-3.85,1.83-5.34,3.38-1.48,1.55-2.24,3.51-2.02,6,.22,2.5,1.42,5.53,3.7,7.65,2.27,2.12,5.62,3.32,9.13,4.26,3.51.95,7.17,1.64,10.77,1.99,3.6.35,7.14.35,10.43.16,3.29-.19,6.32-.57,9.29-1.2,2.97-.63,5.88-1.52,7.71-2.12,1.83-.6,2.59-.92,3.16-1.3.57-.38.95-.82-.13-.06-1.07.76-3.6,2.72-7.42,4.3-3.82,1.58-8.94,2.78-12.64,3.73-3.7.95-5.97,1.64-10.14,1.74-4.17.09-10.24-.41-15.99-1.64-5.75-1.23-11.18-3.19-14.91-5.43-3.73-2.24-5.75-4.77-6-7.42-.25-2.65,1.26-5.43,3.48-7.46,2.21-2.02,5.12-3.29,8.69-4.45,3.57-1.17,7.8-2.24,9.38-2.65,1.58-.41.51-.16-1.14.54h0Z"/>
          <path class="cls-7" d="M30.66,47.11c.16-.16-1.93,1.55-2.97,3.44-1.04,1.9-1.04,3.98-.66,6.07.38,2.09,1.14,4.17,3.32,6.48,2.18,2.31,5.78,4.83,9.73,6.51,3.95,1.67,8.25,2.5,14.31,3.63,6.07,1.14,13.9,2.59,21.93,3.29,8.02.7,16.24.63,23.92.28,7.68-.35,14.82-.98,20.22-1.64,5.4-.66,9.07-1.36,11.37-1.93,2.31-.57,3.25-1.01,3.82-1.2.57-.19.76-.13,1.07.76.32.88.76,2.59,1.01,3.85.25,1.26.32,2.09.25,2.65-.06.57-.25.88-2.4,2.09-2.15,1.2-6.26,3.29-13.46,5.28-7.2,1.99-17.5,3.89-28.12,4.55-10.62.66-21.55.09-30.71-.98-9.16-1.07-16.55-2.65-22.97-5.34-6.41-2.69-11.85-6.48-15.2-10.14-3.35-3.66-4.61-7.2-4.83-10.33-.22-3.13.6-5.84,1.67-7.96,1.07-2.12,2.4-3.63,4.27-5.4,1.86-1.77,4.26-3.79,4.42-3.95h0Z"/>
          <path class="cls-7" d="M8.35,76.65c-.66.76-1.8,3.92-2.15,7.65-.35,3.73.09,8.02,3,12.38,2.91,4.36,8.28,8.78,13.93,12.51,5.66,3.73,11.59,6.76,17.57,9.07,5.97,2.31,11.97,3.89,19.84,5.15,7.87,1.26,17.6,2.21,26.85,2.15,9.26-.06,18.04-1.14,25.37-2.24,7.33-1.11,13.21-2.24,18.01-3.57,4.8-1.33,8.53-2.84,10.39-3.6q1.86-.76,1.9-1.8c.03-1.04.09-3.13.03-5.31-.06-2.18-.25-4.45-.35-5.72-.09-1.26-.09-1.52-2.21-1.11-2.12.41-6.35,1.48-12.13,2.72-5.78,1.23-13.11,2.62-21.39,3.32-8.28.7-17.5.7-26.98.22-9.48-.47-19.21-1.42-28.02-3.06-8.81-1.64-16.71-3.98-22.94-6.79-6.22-2.81-10.77-6.1-13.77-9.41-3-3.32-4.45-6.67-5.28-9.16-.82-2.5-1.01-4.14-1.67-3.38h0Z"/>
          <path class="cls-7" d="M138.7,131.94c-1.11.51-4.45,2.78-7.93,4.3-3.48,1.52-7.08,2.27-10.68,3.16-3.6.88-7.2,1.9-11.09,2.56-3.89.66-8.06.98-13.05,1.04-4.99.06-10.8-.13-16.81-.44-6-.32-12.19-.76-18.54-1.77-6.35-1.01-12.86-2.59-19.11-4.36-6.26-1.77-12.26-3.73-17.41-6.22-5.15-2.5-9.45-5.53-12.98-8.75-3.54-3.22-6.32-6.63-7.99-9.95-1.67-3.32-2.24-6.54-2.56-7.71-.32-1.17-.38-.28-.47,2.02-.09,2.31-.22,6.03.51,10.43.73,4.39,2.31,9.45,5.31,13.9,3,4.45,7.42,8.31,11.66,11.22,4.23,2.91,8.28,4.87,12.95,6.89,4.68,2.02,9.98,4.11,17.12,5.84,7.14,1.74,16.11,3.13,24.77,3.82,8.66.7,17,.7,24.55.25,7.55-.44,14.31-1.33,19.52-2.37,5.21-1.04,8.88-2.24,10.77-3.1,1.9-.85,2.02-1.36,3.1-3.44,1.07-2.08,3.1-5.75,4.45-8.56,1.36-2.81,2.05-4.77,2.97-6.38.92-1.61,2.05-2.87.95-2.37h0Z"/>
          <path class="cls-7" d="M11.42,151.91c1.26,1.52,3.22,3.54,6.03,5.4,2.81,1.86,6.48,3.57,10.55,5.05,4.08,1.48,8.56,2.75,13.87,4.01,5.31,1.26,11.44,2.53,16.84,3.25,5.4.73,10.08.92,15.32,1.01,5.24.09,11.06.09,15.51-.16,4.45-.25,7.55-.76,10.39-1.04,2.84-.28,5.43-.35,8.02-.82,2.59-.47,5.18-1.36,6.6-1.74,1.42-.38,1.67-.25-.41,1.07-2.09,1.33-6.51,3.85-11.66,5.81-5.15,1.96-11.03,3.35-15.8,4.3-4.77.95-8.44,1.45-13.65,1.67-5.21.22-11.97.16-18.29-.54-6.32-.69-12.19-2.02-17.09-3.44-4.9-1.42-8.81-2.94-12.32-5.09-3.51-2.15-6.6-4.93-8.75-7.49-2.15-2.56-3.35-4.9-4.45-7.33-1.11-2.43-2.12-4.96-2.34-5.72-.22-.76.35.25,1.61,1.77h0Z"/>
        </g>
      </g>
      <text class="cls-3" transform="translate(8.9 269.51)"><tspan class="cls-13" x="0" y="0">K</tspan><tspan x="25.84" y="0">ABRA </tspan><tspan class="cls-15" x="146.63" y="0">C</tspan><tspan x="172.8" y="0">ONSU</tspan><tspan class="cls-6" x="284.96" y="0">L</tspan><tspan class="cls-14" x="304.6" y="0">T</tspan><tspan x="325.85" y="0">AN</tspan><tspan class="cls-11" x="383.21" y="0">C</tspan><tspan class="cls-9" x="409.66" y="0">Y SER</tspan><tspan class="cls-5" x="519.09" y="0">V</tspan><tspan x="545.73" y="0">ICES</tspan></text>
      <line class="cls-4" x1="1.1" y1="225.4" x2="648.8" y2="225.4"/>
      <line class="cls-4" x1="1.1" y1="287.61" x2="648.8" y2="287.61"/>
    </g>
  </g>
</svg>