<?xml version="1.0" encoding="UTF-8"?>
<svg id="Layer_2" data-name="Layer 2" xmlns="http://www.w3.org/2000/svg" viewBox="0 0 439.15 655.13">
  <defs>
    <style>
      .cls-1 {
        letter-spacing: -.05em;
      }

      .cls-2, .cls-3 {
        fill-rule: evenodd;
      }

      .cls-2, .cls-4 {
        fill: #144791;
      }

      .cls-3 {
        fill: #e38e49;
      }

      .cls-5 {
        letter-spacing: -.09em;
      }

      .cls-4 {
        font-family: NORD-Medium, NORD;
        font-size: 152.47px;
        font-weight: 500;
      }
    </style>
  </defs>
  <g id="Layer_1-2" data-name="Layer 1">
    <g>
      <text class="cls-4" transform="translate(51.61 623.11)"><tspan class="cls-5" x="0" y="0">K</tspan><tspan class="cls-1" x="105.21" y="0">CS</tspan></text>
      <path class="cls-2" d="M230.21.11c10.27.33,26.91,1.3,51.7,9.95,24.79,8.64,57.73,24.95,84.15,47.95,26.42,22.99,46.31,52.67,58.38,83.33,12.07,30.66,16.31,62.3,14.19,94.91-2.12,32.62-10.6,66.21-26.26,95.08-15.66,28.87-38.49,53-66.7,71.59-28.21,18.59-61.81,31.64-94.42,37.35-32.62,5.71-64.25,4.08-92.3-2.94-28.05-7.01-52.51-19.41-68.01-28.26-15.5-8.86-22.04-14.18-26.2-17.32-4.16-3.14-5.94-4.09,3.86.52,9.79,4.62,31.16,14.81,48.69,21.21,17.53,6.4,31.23,9.01,50.31,10.15,19.08,1.14,43.54.82,67.68-3.75,24.14-4.57,47.95-13.37,68.66-25.44,20.71-12.07,38.32-27.4,52.51-44.19,14.19-16.8,24.95-35.06,32.29-56.59,7.34-21.53,11.25-46.32,11.09-73.55-.16-27.23-4.4-56.91-15-84.64-10.6-27.72-27.56-53.49-43.22-70.78-15.66-17.29-30.01-26.09-43.22-33.59-13.21-7.5-25.28-13.7-39.46-18.59-14.19-4.89-30.5-8.48-36.69-10.44-6.2-1.96-2.28-2.28,7.99-1.96h0Z"/>
      <path class="cls-3" d="M158.3,11.36c-4.24,1.79-9.95,4.73-13.78,8.72-3.83,4-5.79,9.05-5.22,15.49.57,6.44,3.67,14.27,9.54,19.73,5.87,5.46,14.51,8.56,23.56,11.01,9.05,2.45,18.51,4.24,27.8,5.14,9.3.9,18.43.9,26.91.41,8.48-.49,16.31-1.47,23.97-3.1,7.66-1.63,15.17-3.91,19.9-5.46,4.73-1.55,6.69-2.37,8.15-3.34,1.47-.98,2.45-2.12-.33-.16-2.77,1.96-9.3,7.01-19.16,11.09-9.87,4.08-23.08,7.18-32.62,9.62-9.54,2.45-15.41,4.24-26.17,4.49-10.76.24-26.42-1.06-41.26-4.24-14.84-3.18-28.87-8.24-38.49-14.02-9.62-5.79-14.84-12.31-15.49-19.16-.65-6.85,3.26-14.03,8.97-19.24,5.71-5.22,13.21-8.48,22.42-11.5,9.21-3.02,20.14-5.79,24.22-6.85,4.08-1.06,1.31-.41-2.93,1.39h0Z"/>
      <path class="cls-3" d="M79.12,59.06c.41-.41-4.97,4-7.66,8.89-2.69,4.89-2.69,10.27-1.71,15.66.98,5.38,2.94,10.76,8.56,16.72,5.63,5.95,14.92,12.48,25.11,16.8,10.19,4.32,21.28,6.44,36.94,9.38,15.66,2.93,35.88,6.69,56.59,8.48,20.71,1.79,41.91,1.63,61.72.73,19.81-.9,38.24-2.53,52.19-4.24,13.94-1.71,23.4-3.51,29.35-4.97,5.95-1.47,8.4-2.61,9.87-3.1,1.47-.49,1.96-.33,2.77,1.96.82,2.28,1.96,6.69,2.61,9.95.65,3.26.82,5.38.65,6.85-.16,1.47-.65,2.28-6.2,5.38-5.54,3.1-16.14,8.48-34.74,13.62-18.59,5.14-45.17,10.03-72.57,11.74-27.4,1.71-55.61.24-79.26-2.53-23.65-2.77-42.73-6.85-59.28-13.78-16.55-6.93-30.58-16.72-39.22-26.17-8.64-9.46-11.9-18.59-12.48-26.66-.57-8.07,1.55-15.08,4.32-20.55,2.77-5.46,6.2-9.38,11.01-13.94,4.81-4.57,11.01-9.78,11.42-10.19h0Z"/>
      <path class="cls-3" d="M21.55,135.3c-1.71,1.96-4.65,10.11-5.55,19.73-.9,9.62.24,20.71,7.75,31.96,7.5,11.25,21.36,22.67,35.96,32.29,14.6,9.62,29.93,17.45,45.34,23.4,15.41,5.95,30.9,10.03,51.21,13.29,20.3,3.26,45.42,5.71,69.31,5.54,23.89-.16,46.56-2.94,65.48-5.79,18.92-2.85,34.08-5.79,46.48-9.21,12.39-3.42,22.02-7.34,26.83-9.3q4.81-1.96,4.89-4.65c.08-2.69.24-8.07.08-13.7-.16-5.63-.65-11.5-.9-14.76-.24-3.26-.24-3.91-5.71-2.85-5.46,1.06-16.39,3.83-31.31,7.01-14.92,3.18-33.84,6.77-55.2,8.56-21.36,1.79-45.17,1.79-69.63.57-24.46-1.22-49.58-3.67-72.33-7.91-22.75-4.24-43.13-10.27-59.2-17.53-16.06-7.26-27.81-15.74-35.55-24.3-7.75-8.56-11.5-17.21-13.62-23.65-2.12-6.44-2.61-10.68-4.32-8.72h0Z"/>
      <path class="cls-3" d="M357.99,278c-2.85,1.3-11.5,7.18-20.47,11.09-8.97,3.91-18.26,5.87-27.56,8.15-9.3,2.28-18.59,4.89-28.62,6.6-10.03,1.71-20.79,2.53-33.68,2.69-12.88.16-27.89-.33-43.38-1.14-15.49-.81-31.47-1.96-47.86-4.57-16.39-2.61-33.19-6.69-49.33-11.25-16.15-4.57-31.64-9.62-44.93-16.06-13.29-6.44-24.38-14.27-33.51-22.59-9.13-8.32-16.31-17.12-20.63-25.69-4.32-8.56-5.79-16.88-6.6-19.89-.82-3.02-.98-.73-1.22,5.22-.24,5.95-.57,15.57,1.31,26.91,1.88,11.33,5.95,24.38,13.7,35.88,7.75,11.5,19.16,21.44,30.09,28.95,10.93,7.5,21.36,12.56,33.43,17.78,12.07,5.22,25.77,10.6,44.19,15.08,18.43,4.49,41.59,8.07,63.93,9.87,22.34,1.79,43.87,1.79,63.36.65,19.49-1.14,36.94-3.42,50.39-6.11,13.45-2.69,22.91-5.79,27.8-7.99,4.89-2.2,5.22-3.51,7.99-8.89,2.77-5.38,7.99-14.84,11.5-22.1,3.51-7.26,5.3-12.31,7.66-16.47,2.37-4.16,5.3-7.42,2.45-6.12h0Z"/>
      <path class="cls-3" d="M29.46,329.53c3.26,3.91,8.32,9.13,15.57,13.94,7.26,4.81,16.72,9.21,27.23,13.05,10.52,3.83,22.1,7.09,35.8,10.36,13.7,3.26,29.52,6.52,43.46,8.4,13.94,1.88,26.01,2.37,39.55,2.61,13.53.24,28.54.24,40.04-.41,11.5-.65,19.49-1.96,26.83-2.69,7.34-.73,14.02-.9,20.71-2.12,6.69-1.22,13.37-3.51,17.04-4.49,3.67-.98,4.32-.65-1.06,2.77-5.38,3.42-16.8,9.95-30.09,15-13.29,5.06-28.46,8.64-40.77,11.09-12.31,2.45-21.77,3.75-35.22,4.32-13.45.57-30.9.41-47.21-1.39-16.31-1.79-31.47-5.22-44.11-8.89-12.64-3.67-22.75-7.58-31.8-13.13-9.05-5.54-17.04-12.72-22.59-19.32-5.54-6.6-8.64-12.64-11.5-18.92-2.85-6.28-5.46-12.8-6.03-14.76-.57-1.96.9.65,4.16,4.57h0Z"/>
    </g>
  </g>
</svg>